<?xml version="1.0" standalone="no"?>
<!DOCTYPE svg PUBLIC "-//W3C//DTD SVG 20010904//EN"
 "http://www.w3.org/TR/2001/REC-SVG-20010904/DTD/svg10.dtd">
<svg version="1.0" xmlns="http://www.w3.org/2000/svg"
 width="1050.000000pt" height="750.000000pt" viewBox="0 0 1050.000000 750.000000"
 preserveAspectRatio="xMidYMid meet">

<g transform="translate(0.000000,750.000000) scale(0.100000,-0.100000)"
fill="#000000" stroke="none">
<path d="M3813 5334 c-103 -51 -266 -261 -372 -478 -56 -115 -156 -362 -194
-481 -73 -227 -148 -541 -172 -721 -29 -222 -23 -205 -82 -237 -78 -42 -192
-67 -333 -74 -217 -10 -381 19 -663 116 -287 100 -477 131 -673 111 -60 -6
-129 -16 -154 -22 -107 -27 -213 -91 -254 -155 -31 -49 -43 -145 -21 -167 35
-35 66 14 40 63 -21 43 -11 73 42 122 90 83 243 129 429 129 176 0 294 -23
544 -105 351 -116 423 -130 655 -130 192 0 280 15 379 65 32 17 60 30 62 30 1
0 1 -62 -1 -137 -12 -408 109 -668 347 -750 56 -19 206 -18 302 2 228 47 681
269 990 484 61 42 115 79 122 83 6 4 62 -16 126 -47 208 -99 365 -131 587
-122 291 12 557 111 742 276 38 34 69 59 69 54 0 -4 -7 -38 -16 -75 -22 -91
-13 -186 23 -228 20 -24 33 -30 64 -30 54 0 107 50 195 185 38 58 72 105 77
105 4 0 7 -31 7 -68 0 -128 43 -212 109 -212 14 0 49 11 76 24 50 24 63 34
237 177 106 87 247 172 328 197 42 13 92 16 215 16 187 -1 287 -17 472 -74
211 -65 432 -118 543 -131 262 -30 514 27 628 143 48 48 55 67 56 153 1 47 -2
60 -15 63 -23 4 -52 -27 -43 -47 27 -64 27 -67 9 -104 -24 -52 -112 -112 -205
-141 -209 -66 -408 -54 -730 44 -161 49 -400 109 -505 126 -75 12 -134 15
-235 10 -230 -10 -325 -48 -528 -213 -73 -59 -156 -123 -184 -140 -76 -48
-126 -44 -155 11 -21 39 -21 196 0 311 10 51 11 84 5 90 -14 14 -52 -34 -73
-92 -26 -68 -138 -235 -201 -299 -90 -89 -121 -68 -111 75 9 134 59 257 142
349 50 56 90 82 125 82 21 0 54 -27 62 -51 8 -23 37 8 31 32 -15 56 -101 76
-172 39 -52 -26 -129 -114 -177 -201 -80 -147 -272 -287 -492 -358 -157 -52
-243 -65 -417 -65 -173 0 -261 15 -410 71 -79 29 -205 92 -205 102 0 4 12 11
28 17 55 21 209 124 273 183 148 135 182 263 96 352 -67 67 -158 78 -244 29
-28 -16 -54 -34 -58 -40 -4 -6 -26 11 -51 39 -74 82 -172 113 -243 77 -95 -50
-133 -167 -95 -297 27 -94 125 -252 194 -314 50 -45 49 -47 -98 -143 -341
-223 -681 -392 -915 -454 -108 -29 -269 -31 -342 -5 -141 50 -225 166 -271
373 -14 61 -18 123 -17 269 0 105 5 208 10 230 7 27 89 150 252 377 362 507
499 734 595 991 39 104 76 264 76 328 0 106 -40 188 -107 215 -46 20 -72 17
-130 -12z m145 -66 c32 -35 43 -74 43 -157 1 -233 -155 -569 -489 -1056 -86
-125 -303 -434 -339 -483 -14 -18 -27 -31 -29 -29 -7 7 34 230 67 367 86 352
201 684 324 935 87 178 137 256 222 346 93 98 157 123 201 77z m868 -1534 c45
-26 94 -77 94 -99 0 -29 22 -25 61 10 74 66 139 80 215 46 80 -36 108 -135 63
-223 -26 -51 -105 -136 -181 -195 -70 -54 -215 -133 -245 -133 -14 0 -40 22
-78 68 -148 177 -207 348 -156 457 46 100 129 125 227 69z"/>
<path d="M4872 2523 l-2 -83 43 1 42 2 -35 6 -35 6 -6 75 -5 75 -2 -82z"/>
<path d="M5072 2577 c-32 -34 -30 -89 4 -116 55 -43 134 -8 134 59 0 69 -91
107 -138 57z m99 -5 c27 -23 30 -75 6 -99 -24 -24 -76 -21 -99 6 -25 31 -23
57 7 86 29 30 55 32 86 7z"/>
<path d="M5320 2594 c0 -20 56 -148 66 -151 5 -1 23 33 41 77 17 44 27 80 23
80 -5 0 -21 -31 -36 -70 -15 -38 -28 -70 -29 -70 -1 0 -12 28 -25 63 -22 60
-40 93 -40 71z"/>
<path d="M5570 2520 l0 -80 43 2 42 1 -37 4 c-34 4 -38 7 -38 34 0 26 3 29 30
29 17 0 30 5 30 10 0 6 -13 10 -30 10 -27 0 -30 3 -30 29 0 27 4 30 38 34 l37
4 -42 1 -43 2 0 -80z"/>
<path d="M5952 2583 c-23 -46 -54 -134 -49 -139 3 -3 8 4 12 15 9 30 91 31
100 1 3 -11 10 -20 15 -20 4 0 -6 36 -23 80 -18 44 -35 80 -39 80 -4 0 -11 -8
-16 -17z m42 -70 c7 -21 4 -23 -29 -23 -31 0 -36 3 -30 18 4 9 12 30 17 46
l11 29 12 -24 c7 -13 16 -34 19 -46z"/>
<path d="M6183 2591 l47 -6 -45 -67 c-25 -37 -45 -70 -45 -73 0 -3 28 -4 63
-3 56 1 57 2 15 5 -27 2 -48 9 -48 14 0 6 18 36 40 68 22 31 40 60 40 64 0 4
-26 6 -57 5 l-58 -1 48 -6z"/>
<path d="M6383 2520 c0 -47 2 -66 4 -42 2 23 2 61 0 85 -2 23 -4 4 -4 -43z"/>
<path d="M6553 2593 c26 -2 47 -8 47 -12 0 -4 -13 -26 -28 -47 -16 -21 -36
-51 -46 -66 l-18 -28 63 2 c57 1 59 2 17 5 -27 2 -48 6 -48 9 0 3 17 31 38 62
21 31 42 63 46 70 5 9 -8 12 -56 10 -56 -1 -58 -2 -15 -5z"/>
<path d="M6902 2518 c1 -46 3 -66 5 -45 3 29 8 37 24 37 33 0 59 19 59 43 0
32 -18 47 -57 47 l-33 0 2 -82z m68 57 c19 -23 4 -45 -30 -45 -27 0 -30 3 -30
30 0 25 4 30 24 30 13 0 29 -7 36 -15z"/>
<path d="M7113 2520 c0 -47 2 -68 4 -47 4 37 5 37 49 37 44 0 44 0 44 -35 0
-19 5 -35 10 -35 6 0 10 33 10 80 0 47 -4 80 -10 80 -5 0 -10 -16 -10 -35 0
-35 0 -35 -44 -35 -44 0 -45 0 -49 38 -2 20 -4 -1 -4 -48z"/>
<path d="M7372 2577 c-32 -34 -30 -89 4 -116 55 -43 134 -8 134 59 0 69 -91
107 -138 57z m99 -5 c27 -23 30 -75 6 -99 -24 -24 -76 -21 -99 6 -25 31 -23
57 7 86 29 30 55 32 86 7z"/>
<path d="M7638 2593 c20 -4 22 -10 24 -81 l2 -77 5 75 c6 68 8 75 31 81 17 5
7 7 -30 7 -30 -1 -45 -3 -32 -5z"/>
<path d="M7853 2585 c-42 -30 -34 -121 12 -139 77 -29 147 42 111 112 -23 45
-80 57 -123 27z m95 -15 c31 -29 29 -73 -5 -100 -46 -36 -103 -8 -103 52 0 32
34 68 65 68 12 0 31 -9 43 -20z"/>
<path d="M8125 2575 c-33 -32 -33 -78 0 -111 20 -20 33 -24 70 -22 l45 3 0 43
c0 40 -1 42 -31 42 -17 0 -28 -4 -24 -10 3 -5 15 -10 26 -10 27 0 25 -38 -4
-51 -31 -14 -75 4 -87 36 -21 56 33 111 85 87 34 -16 40 -15 25 3 -20 24 -77
19 -105 -10z"/>
<path d="M8372 2518 c1 -46 3 -66 5 -45 6 49 33 50 62 1 12 -20 24 -34 27 -31
3 2 -4 20 -15 38 -20 32 -20 33 -1 46 40 28 11 73 -46 73 l-34 0 2 -82z m66
63 c25 -16 9 -46 -26 -49 -30 -3 -32 -1 -32 27 0 26 4 31 23 31 12 0 28 -4 35
-9z"/>
<path d="M8605 2533 c-15 -37 -29 -74 -32 -80 -3 -7 -1 -13 5 -13 5 0 12 9 15
20 8 29 82 29 97 -1 7 -11 14 -19 16 -16 7 7 -52 151 -63 154 -6 2 -23 -27
-38 -64z m54 6 c16 -46 14 -49 -19 -49 -34 0 -34 1 -18 47 15 41 23 42 37 2z"/>
<path d="M8822 2518 c1 -46 3 -66 5 -45 4 33 7 37 33 37 48 0 78 48 48 78 -7
7 -29 12 -50 12 l-38 0 2 -82z m72 57 c23 -24 9 -45 -30 -45 -29 0 -34 3 -34
23 0 13 3 27 7 30 11 12 41 8 57 -8z"/>
<path d="M9033 2520 c0 -47 2 -68 4 -47 l4 37 49 0 49 0 4 -37 c2 -21 4 0 4
47 0 47 -2 68 -4 48 l-4 -38 -49 0 -49 0 -4 38 c-2 20 -4 -1 -4 -48z"/>
<path d="M9285 2563 c17 -26 25 -51 25 -80 0 -24 5 -43 10 -43 6 0 10 18 10
41 0 23 8 52 18 67 29 42 34 52 25 52 -5 0 -17 -13 -26 -30 -10 -16 -21 -30
-25 -30 -4 0 -16 14 -25 30 -10 17 -23 30 -28 30 -5 0 2 -17 16 -37z"/>
</g>
</svg>
